<svg width="94" height="87" viewBox="0 0 94 87" fill="none" xmlns="http://www.w3.org/2000/svg">
<path d="M86.7853 31.1585C85.1522 30.0496 83.2672 29.3097 81.3935 28.3476C82.7936 23.526 82.6489 18.5669 80.6605 13.7189C78.6552 8.83512 75.3927 4.94166 70.6417 2.67863C59.2471 -2.74925 49.7977 0.306403 41.9721 9.72377C35.4808 5.6778 28.7132 5.08286 22.0434 9.10812C14.8511 13.4497 12.2106 20.1446 13.263 28.4436C13.0036 28.5208 12.7405 28.6037 12.4756 28.6752C4.99195 30.6766 -0.0503632 37.3828 0.000379494 45.2714C0.0473634 52.6931 5.36029 59.3673 12.7424 61.154C14.1275 61.4892 15.5896 61.5908 17.0198 61.6322C19.6096 61.7057 22.2031 61.6529 24.8511 61.6529C24.8511 64.6465 24.8511 67.5459 24.8511 70.5695C24.0148 70.5695 23.2255 70.5695 22.2313 70.5695C24.5955 73.6685 26.8263 76.5886 29.1304 79.6066C31.4439 76.5697 33.6691 73.6515 36.0295 70.5545C35.0241 70.5545 34.2554 70.5545 33.4492 70.5545C33.4492 67.5346 33.4492 64.6145 33.4492 61.6944C36.5689 61.6944 39.5965 61.6944 42.6937 61.6944C42.6937 67.1128 42.6937 72.488 42.6937 77.9912C41.863 77.9912 41.0775 77.9912 40.1002 77.9912C42.4663 81.0845 44.6971 84.0027 46.99 87C49.3166 83.9481 51.5399 81.0299 53.9079 77.9253C52.8517 77.9253 52.0793 77.9253 51.2862 77.9253C51.2862 72.4692 51.2862 67.094 51.2862 61.7113C54.575 61.7113 57.7869 61.7113 61.0344 61.7113C61.0344 64.6672 61.0344 67.5647 61.0344 70.5676C60.2075 70.5676 59.4407 70.5676 58.4409 70.5676C60.807 73.6685 63.0359 76.5886 65.3362 79.6047C67.6403 76.5848 69.873 73.6609 72.2429 70.5563C71.2412 70.5563 70.4462 70.5563 69.6362 70.5563C69.6362 67.5421 69.6362 64.6446 69.6362 61.6511C70.0403 61.6511 70.3786 61.6511 70.715 61.6511C72.9702 61.6511 75.2254 61.6755 77.4806 61.6454C84.7782 61.5532 91.0947 56.7842 93.2654 49.7485C95.3928 42.8596 92.7993 35.244 86.7853 31.1585Z" fill="#FFAF08"/>
</svg>
