<svg width="84" height="84" viewBox="0 0 84 84" fill="none" xmlns="http://www.w3.org/2000/svg">
<path d="M34.0584 17.965C36.6733 17.965 39.1673 17.965 41.665 17.965C54.5957 17.965 67.5265 17.9612 80.4573 17.965C83.5029 17.965 84.0622 18.7434 83.1213 21.6341C78.9987 34.3269 74.8761 47.0196 70.7497 59.7123C69.8617 62.4405 69.7749 62.4972 66.903 62.4972C59.8822 62.501 52.8613 62.4972 45.6931 62.4972C45.6931 65.4597 45.6931 68.3051 45.6931 71.449C46.5358 71.449 47.3935 71.4149 48.2437 71.4565C50.443 71.5661 51.9053 72.9453 52.0225 75.1105C52.1056 76.6749 52.098 78.2469 52.0187 79.8113C51.9129 81.9387 50.4278 83.4691 48.2513 83.4955C42.3527 83.5635 36.4503 83.5597 30.5518 83.4955C28.2959 83.4691 26.8297 81.9084 26.7315 79.6601C26.6748 78.3451 26.7013 77.0263 26.7239 75.7113C26.7693 72.8924 28.1938 71.4981 31.0619 71.449C31.6778 71.4376 32.2975 71.449 33.0646 71.449C33.0646 68.4676 33.0646 65.6222 33.0646 62.6143C32.5356 62.5803 31.9915 62.5161 31.4511 62.5161C24.6078 62.5085 17.7684 62.5161 10.9251 62.5085C8.0911 62.5047 7.44115 61.6092 8.31403 58.915C10.808 51.2253 13.3095 43.5394 15.8035 35.8535C15.9924 35.2753 16.1511 34.6858 16.3287 34.0812C4.49752 32.4564 -0.10495 22.9151 0.798163 15.4068C1.81842 6.94249 9.03199 0.68872 17.6172 0.715171C24.9215 0.734065 33.7977 6.50417 34.0584 17.965ZM30.2155 17.965C30.0341 16.5593 29.9888 15.3841 29.7205 14.2619C28.2279 8.04966 22.1441 3.85528 15.8828 4.66393C9.2814 5.51414 4.50511 10.9479 4.56179 17.5342C4.61848 23.8598 9.58747 29.3201 15.8828 30.072C17.262 30.2383 17.8666 29.8264 18.2483 28.4698C19.0418 25.6396 20.0847 22.8849 20.9312 20.066C21.3733 18.5847 22.1782 17.8819 23.769 17.9461C25.8171 18.0255 27.8727 17.965 30.2155 17.965ZM31.1753 35.2942C27.5628 35.2942 24.1922 35.2753 20.8216 35.3244C20.4966 35.3282 19.9865 35.6796 19.8845 35.9819C18.8566 38.9747 17.8931 41.9901 16.8577 45.1718C20.4513 45.1718 23.769 45.1944 27.0905 45.1415C27.4721 45.134 28.0729 44.7674 28.1901 44.4311C29.2028 41.4837 30.1361 38.5061 31.1753 35.2942ZM12.4631 58.6656C16.0831 58.6656 19.4008 58.6845 22.7223 58.6391C23.0699 58.6353 23.633 58.3557 23.7274 58.0761C24.7439 55.1438 25.6848 52.1851 26.7201 49.0109C23.0964 49.0109 19.7787 48.9921 16.461 49.0374C16.1095 49.0412 15.5503 49.3321 15.452 49.6155C14.4356 52.5516 13.4909 55.5179 12.4631 58.6656ZM21.343 31.387C24.9593 31.387 28.3223 31.4059 31.6854 31.3568C32.0217 31.353 32.5545 30.9978 32.6565 30.6917C33.6428 27.8123 34.5534 24.9103 35.5548 21.8042C31.9461 21.8042 28.5793 21.7853 25.2162 21.8344C24.8799 21.8382 24.3547 22.1745 24.2527 22.4692C23.2702 25.3411 22.3557 28.2431 21.343 31.387ZM56.4398 58.6656C59.8255 58.6656 62.958 58.6807 66.0906 58.6429C66.4496 58.6391 67.0315 58.3935 67.1222 58.1252C68.1538 55.1589 69.1098 52.1699 70.1414 49.0223C66.7216 49.0223 63.6533 48.9807 60.585 49.0638C60.1278 49.0752 59.4249 49.5702 59.2738 49.9972C58.2951 52.7594 57.4373 55.567 56.4398 58.6656ZM74.6078 35.2904C71.2259 35.2904 68.0404 35.2715 64.855 35.3169C64.5073 35.3207 63.9556 35.6305 63.8536 35.9215C62.8258 38.9218 61.8698 41.9485 60.8268 45.168C64.2504 45.168 67.3829 45.202 70.5155 45.1264C70.9122 45.1189 71.5168 44.639 71.6529 44.246C72.6656 41.3628 73.5838 38.4381 74.6078 35.2904ZM45.5684 35.298C42.2129 35.298 39.2164 35.2753 36.2236 35.3282C35.8269 35.3358 35.192 35.6532 35.0824 35.9668C34.0471 38.9558 33.1024 41.975 32.0708 45.1642C35.381 45.1642 38.438 45.1907 41.495 45.1302C41.8653 45.1226 42.4472 44.7486 42.5643 44.4122C43.5808 41.48 44.5217 38.5174 45.5684 35.298ZM41.1095 49.0109C37.7843 49.0109 34.7839 48.9883 31.7836 49.0412C31.3793 49.0487 30.7332 49.3548 30.6236 49.6722C29.6109 52.5894 28.6889 55.5406 27.68 58.6656C31.0128 58.6656 34.0131 58.6996 37.0134 58.6278C37.4328 58.6164 38.0752 58.1857 38.2112 57.804C39.2013 54.9851 40.093 52.1359 41.1095 49.0109ZM59.9426 35.3018C56.6211 35.3018 53.4962 35.2791 50.3749 35.332C50.05 35.3358 49.5474 35.7136 49.4378 36.0273C48.4251 38.9822 47.4767 41.9599 46.4375 45.1567C49.7892 45.1567 52.9067 45.1831 56.0279 45.1189C56.368 45.1113 56.8819 44.6276 57.0066 44.2611C58.0041 41.3628 58.9224 38.4419 59.9426 35.3018ZM42.058 58.6656C45.3984 58.6656 48.4024 58.6845 51.4027 58.6429C51.7693 58.6391 52.3663 58.4124 52.457 58.1479C53.4924 55.1816 54.4521 52.1851 55.4913 49.0109C52.1358 49.0109 49.1317 48.9769 46.1314 49.0487C45.712 49.0601 45.0583 49.4946 44.926 49.8763C43.9436 52.6952 43.0631 55.5519 42.058 58.6656ZM65.3009 31.387C68.7508 31.387 71.8683 31.4059 74.9857 31.3606C75.3447 31.3568 75.9191 31.0847 76.0173 30.8051C77.0338 27.8841 77.9747 24.9405 79.0025 21.8004C75.5676 21.8004 72.4464 21.7702 69.3252 21.8382C68.9208 21.8458 68.3049 22.3068 68.1689 22.6922C67.194 25.4544 66.3211 28.2469 65.3009 31.387ZM36.5297 31.4021C39.8928 31.4021 42.9573 31.4135 46.0181 31.3832C46.3393 31.3794 46.8645 31.1792 46.9438 30.9487C47.9603 27.9786 48.9126 24.9859 49.9479 21.8042C46.5547 21.8042 43.5506 21.7702 40.5465 21.842C40.1422 21.8533 39.5224 22.3143 39.3864 22.7035C38.4153 25.4658 37.5424 28.2696 36.5297 31.4021ZM50.9153 31.3983C54.3274 31.3983 57.3844 31.4172 60.4414 31.3681C60.7739 31.3643 61.2954 31.028 61.3974 30.7333C62.3912 27.8501 63.3132 24.9405 64.3335 21.808C61.0347 21.808 57.9815 21.774 54.9283 21.8458C54.5239 21.8571 53.908 22.3219 53.772 22.7073C52.8009 25.4771 51.928 28.2771 50.9153 31.3983ZM30.6425 79.5581C36.5675 79.5581 42.3074 79.5581 48.0812 79.5581C48.0812 78.0919 48.0812 76.7505 48.0812 75.3939C42.2129 75.3939 36.473 75.3939 30.6425 75.3939C30.6425 76.811 30.6425 78.1071 30.6425 79.5581ZM37.2439 62.5728C37.2439 65.5428 37.2439 68.4335 37.2439 71.3545C38.7441 71.3545 40.0968 71.3545 41.5516 71.3545C41.5516 68.3806 41.5516 65.4937 41.5516 62.5728C40.0401 62.5728 38.6798 62.5728 37.2439 62.5728Z" fill="#FFAF08"/>
</svg>
