<svg width="77" height="73" viewBox="0 0 77 73" fill="none" xmlns="http://www.w3.org/2000/svg">
<path d="M0 16.9239C0.373944 16.271 0.937828 15.9564 1.67385 15.8139C2.60574 15.6299 3.51389 15.345 4.43985 15.1076C6.27989 14.6387 7.14055 12.6146 6.17898 10.9823C5.64478 10.0742 5.10464 9.17196 4.57636 8.25788C4.02435 7.31411 4.07777 6.88675 4.82566 6.12699C5.2649 5.68182 5.71007 5.23664 6.15524 4.79741C6.89126 4.06733 7.37204 4.01391 8.29206 4.54811C9.26551 5.11793 10.233 5.69369 11.2124 6.25164C12.5835 7.03514 14.6729 6.15667 15.0765 4.64308C15.3733 3.52718 15.6582 2.41129 15.955 1.29539C16.1983 0.363498 16.5723 0.0489095 17.5398 0.0132958C18.2639 -0.0104467 18.994 0.00142455 19.7181 0.0192314C20.466 0.0370383 20.929 0.416918 21.113 1.147C21.3979 2.2629 21.6947 3.37879 21.9855 4.49469C22.4307 6.21009 24.5082 7.07669 26.0336 6.18634C26.9833 5.6284 27.933 5.06451 28.8827 4.5125C29.7434 4.01391 30.2301 4.0792 30.9543 4.79147C31.3994 5.23071 31.8446 5.67588 32.2839 6.12105C33.0377 6.88081 33.0852 7.29631 32.5331 8.25194C31.9752 9.20758 31.4113 10.1513 30.8593 11.107C30.0343 12.5375 30.8712 14.6209 32.4501 15.0423C33.56 15.3391 34.6818 15.6121 35.7977 15.903C36.6881 16.1344 37.0145 16.4846 37.0739 17.4225C37.1214 18.1704 37.0917 18.9242 37.068 19.678C37.0502 20.4675 36.5931 20.9126 35.8571 21.0966C34.7649 21.3756 33.6728 21.6486 32.5866 21.9336C30.8593 22.3787 29.9986 24.4503 30.9009 25.9816C31.4707 26.9551 32.0583 27.9167 32.6222 28.896C33.0674 29.6736 33.0021 30.1603 32.3907 30.7895C31.8802 31.3118 31.3579 31.8164 30.8474 32.3328C30.2954 32.8966 29.6781 32.9619 29.0074 32.5702C28.0102 31.9885 27.0249 31.3949 26.0277 30.8192C24.4963 29.9229 22.4248 30.8014 21.9915 32.5227C21.7244 33.5674 21.4632 34.612 21.1902 35.6567C20.929 36.648 20.5729 36.9507 19.5697 36.9922C18.8931 37.0219 18.2164 37.0219 17.5398 36.9922C16.5604 36.9447 16.2043 36.6361 15.9609 35.6983C15.67 34.5824 15.3851 33.4665 15.0824 32.3506C14.661 30.8192 12.5776 29.9645 11.2124 30.7539C10.1915 31.3475 9.18241 31.9529 8.16148 32.5405C7.40172 32.9797 6.88532 32.9085 6.26802 32.3031C5.74568 31.7926 5.24115 31.2703 4.71882 30.7658C4.15493 30.2137 4.0659 29.6202 4.47546 28.9376C5.08089 27.9285 5.68039 26.9135 6.26802 25.8926C7.099 24.4503 6.25021 22.3906 4.65946 21.9632C3.64447 21.6902 2.63542 21.3875 1.60855 21.1797C0.896279 21.0373 0.379879 20.6871 0.0178061 20.0816C-7.24165e-07 19.037 0 17.9804 0 16.9239ZM18.5548 26.1538C22.7987 26.1538 26.2058 22.7527 26.1998 18.5087C26.1998 14.2707 22.7928 10.8695 18.5488 10.8695C14.3167 10.8695 10.88 14.2944 10.88 18.5087C10.88 22.7289 14.3227 26.1538 18.5548 26.1538Z" fill="#FFAF08"/>
<path d="M29.4822 55.9684C29.1083 55.9684 28.7284 55.9862 28.3544 55.9625C27.4344 55.915 26.6509 55.3036 26.461 54.4133C26.1523 52.9412 25.8733 51.4633 25.624 49.9794C25.4875 49.1721 26.0395 48.3293 26.8468 48.0265C27.1258 47.9197 27.4166 47.8247 27.7134 47.7832C29.1914 47.5695 29.7849 46.4892 30.1648 45.2487C30.4438 44.3286 29.8621 43.7173 29.2151 43.2068C28.7224 42.821 28.1586 42.5302 27.6362 42.1859C26.6509 41.533 26.3541 40.5951 26.7874 39.5089C27.2445 38.3693 27.7075 37.2296 28.1764 36.0959C28.6868 34.8554 29.5534 34.3746 30.8177 34.8673C32.2719 35.4371 33.4769 35.1997 34.6343 34.2262C35.5069 33.4961 35.7799 32.7008 35.3822 31.6264C35.1745 31.0625 34.8955 30.5283 34.6462 29.9763C34.1417 28.8604 34.3969 27.8929 35.3941 27.2162C36.3853 26.5336 37.3885 25.8629 38.3856 25.1981C39.4244 24.5096 40.3444 24.6343 41.1813 25.5721C41.4662 25.8926 41.7096 26.2487 42.0242 26.5336C42.2735 26.7592 42.5821 26.9848 42.9026 27.05C43.4369 27.1628 43.9948 27.1925 44.5409 27.1806C46.28 27.1569 47.0457 26.4446 47.2475 24.7233C47.295 24.3019 47.3484 23.8745 47.4197 23.4531C47.5918 22.5034 48.2981 21.7852 49.2538 21.7495C50.6249 21.6961 52.0079 21.6961 53.379 21.7495C54.2931 21.7852 55.0113 22.4974 55.1894 23.3937C55.2191 23.5421 55.2428 23.6905 55.2369 23.8448C55.1775 25.8392 56.5427 26.7117 58.0919 27.3765C58.9704 27.7564 59.7658 27.4121 60.4068 26.7533C60.8104 26.3437 61.1547 25.8748 61.5464 25.4474C62.2647 24.6639 63.2322 24.5333 64.1225 25.115C65.1909 25.8154 66.2534 26.5336 67.304 27.2637C68.2062 27.887 68.4555 28.8189 68.0341 29.8398C67.9688 30.0001 67.9154 30.1781 67.8145 30.3206C66.8173 31.7807 67.3277 33.14 68.0934 34.4696C68.5267 35.2175 69.423 35.5024 70.4083 35.2471C70.9425 35.1047 71.4589 34.9207 71.9931 34.7782C73.0734 34.4933 73.9341 34.9088 74.3733 35.9357C74.866 37.0872 75.3408 38.2506 75.8097 39.4139C76.2965 40.6129 76.0175 41.5864 74.8719 42.2393C73.6789 42.916 72.7648 43.7173 72.557 45.1715C72.3968 46.3171 72.6995 46.9937 73.7976 47.4211C74.3555 47.6348 74.9431 47.7772 75.5189 47.9553C76.6704 48.3115 77.169 49.1365 76.9494 50.3058C76.7298 51.4633 76.5101 52.6207 76.3024 53.7841C75.9997 55.452 75.3646 56.0218 73.6492 55.9684C72.4858 55.9328 71.4174 56.0278 70.5448 56.9359C69.8563 57.6541 69.7198 58.1527 70.2659 58.9956C70.6279 59.5595 71.1087 60.0521 71.542 60.5685C72.4205 61.6072 72.4205 62.5095 71.5123 63.5007C70.6101 64.4801 69.7079 65.4595 68.7938 66.421C67.9628 67.2995 66.9835 67.4123 65.9507 66.7594C65.0247 66.1777 64.1878 65.4417 62.9472 65.596C61.8729 65.7325 61.5168 66.0115 61.5405 67.1155C61.5583 67.8159 61.683 68.5104 61.7898 69.2048C61.9738 70.4454 61.4396 71.3061 60.2347 71.6444C58.9348 72.0065 57.6289 72.3685 56.329 72.7247C55.041 73.0749 54.2278 72.6891 53.6521 71.4663C53.3671 70.8549 53.1238 70.2139 52.7736 69.6381C51.9663 68.2908 50.6783 68.2908 49.8711 69.6381C49.5149 70.2376 49.2656 70.9024 48.9629 71.5375C48.4287 72.6653 47.5799 73.0749 46.3869 72.7484C45.0573 72.3863 43.7336 72.0183 42.4041 71.6503C41.1873 71.312 40.6412 70.4573 40.8549 69.2167C41.0507 68.0711 41.2822 66.9434 40.4453 65.9106C40.0417 65.412 39.6084 65.1567 39.0267 65.4476C38.2907 65.8097 37.5665 66.2133 36.8721 66.6525C35.59 67.4538 34.6937 67.3648 33.6728 66.2667C32.818 65.3467 31.9633 64.4267 31.1145 63.5066C30.2063 62.5213 30.1826 61.5894 31.0908 60.5804C31.8624 59.7257 32.5865 58.9065 32.3907 57.6126C32.2423 56.6332 32.0701 56.3542 31.1204 56.0931C31.0017 56.0574 30.8771 56.01 30.7584 56.01C30.331 55.9981 29.9096 56.004 29.4822 56.004C29.4822 55.9803 29.4822 55.9743 29.4822 55.9684ZM61.8492 47.3143C61.8848 41.4974 57.2075 36.7548 51.3906 36.7073C45.6152 36.6598 40.8074 41.3608 40.7718 47.0768C40.7361 52.959 45.36 57.7432 51.1235 57.7788C57.0888 57.8203 61.8135 53.2083 61.8492 47.3143Z" fill="#FFAF08"/>
<path d="M58.9823 47.2666C58.9645 51.5344 55.51 54.9414 51.2245 54.9117C47.0517 54.882 43.6209 51.4097 43.6387 47.237C43.6625 43.0049 47.0873 39.5978 51.3254 39.5859C55.5278 39.58 58.9942 43.0583 58.9823 47.2666Z" fill="#FFAF08"/>
</svg>
