<svg width="27" height="27" viewBox="0 0 27 27" fill="none" xmlns="http://www.w3.org/2000/svg">
<path d="M26.0471 13.0406C26.0514 20.224 20.2041 26.0846 13.03 26.0872C5.81386 26.0898 -0.00171919 20.2618 3.81237e-07 13.0303C0.00171995 5.83486 5.83707 -0.00516321 13.0206 3.42553e-06C20.1972 0.00603117 26.0428 5.85811 26.0471 13.0406ZM16.7658 14.7C16.9429 13.5667 17.1123 12.4843 17.2937 11.3304C16.2018 11.3304 15.1821 11.3304 14.1426 11.3304C14.1426 10.4504 14.1288 9.6332 14.1477 8.81601C14.1598 8.30107 14.4212 7.88774 14.8846 7.68796C15.2422 7.53383 15.6481 7.46063 16.0393 7.42102C16.4743 7.3771 16.918 7.41069 17.4123 7.41069C17.4123 6.57283 17.3994 5.78836 17.4192 5.00389C17.427 4.69217 17.3066 4.61984 17.0203 4.61467C16.2757 4.60004 15.5311 4.56731 14.7883 4.51909C12.7626 4.38734 11.2795 5.41981 10.7705 7.3883C10.6286 7.93596 10.6003 8.51979 10.5753 9.08898C10.5435 9.82868 10.5676 10.5709 10.5676 11.364C9.5393 11.364 8.57376 11.364 7.60479 11.364C7.60479 12.4972 7.60479 13.5779 7.60479 14.7155C8.60386 14.7155 9.56767 14.7155 10.5908 14.7155C10.5908 17.4736 10.5908 20.174 10.5908 22.8676C11.804 22.8676 12.9552 22.8676 14.1486 22.8676C14.1486 20.1404 14.1486 17.4477 14.1486 14.7C15.0376 14.7 15.8897 14.7 16.7658 14.7Z" fill="#FFAF08"/>
<path d="M16.7658 14.6999C15.8905 14.6999 15.0385 14.6999 14.1469 14.6999C14.1469 17.4486 14.1469 20.1404 14.1469 22.8675C12.9535 22.8675 11.8023 22.8675 10.5891 22.8675C10.5891 20.174 10.5891 17.4735 10.5891 14.7154C9.56597 14.7154 8.60216 14.7154 7.60309 14.7154C7.60309 13.5779 7.60309 12.4981 7.60309 11.364C8.5712 11.364 9.5376 11.364 10.5659 11.364C10.5659 10.5718 10.5418 9.82948 10.5736 9.08893C10.5986 8.51974 10.6269 7.93591 10.7688 7.38824C11.2778 5.41975 12.7618 4.38729 14.7866 4.51904C15.5294 4.56726 16.274 4.59998 17.0186 4.61462C17.3049 4.61979 17.4253 4.69212 17.4175 5.00384C17.3977 5.78831 17.4106 6.57278 17.4106 7.41063C16.9163 7.41063 16.4735 7.37619 16.0376 7.42097C15.6464 7.46058 15.2405 7.53377 14.8829 7.68791C14.4186 7.88769 14.1572 8.30102 14.146 8.81596C14.128 9.63229 14.1409 10.4503 14.1409 11.3304C15.1804 11.3304 16.2009 11.3304 17.292 11.3304C17.1123 12.4851 16.9429 13.5667 16.7658 14.6999Z" fill="white"/>
</svg>
