<svg width="27" height="27" viewBox="0 0 27 27" fill="none" xmlns="http://www.w3.org/2000/svg">
<path d="M26.0428 13.0243C26.0446 20.2567 20.2316 26.0864 13.0163 26.0864C5.84051 26.0864 0.00430129 20.2386 2.37374e-06 13.0449C-0.00429654 5.86072 5.83105 0.013802 13.0171 2.43066e-05C20.1946 -0.0137534 26.0411 5.83144 26.0428 13.0243ZM13.0206 4.72492C11.7601 4.72492 10.4997 4.72233 9.23924 4.72578C6.696 4.73353 4.70904 6.71666 4.7056 9.25348C4.70216 11.7636 4.70388 14.2746 4.70474 16.7847C4.7056 19.3482 6.62292 21.3331 9.18765 21.3641C11.7515 21.3951 14.3163 21.3959 16.8793 21.3641C19.3984 21.3322 21.3278 19.3853 21.3544 16.8579C21.382 14.3047 21.3854 11.7507 21.3544 9.1975C21.3244 6.66413 19.3305 4.73181 16.8019 4.72492C15.5415 4.72233 14.281 4.72492 13.0206 4.72492Z" fill="#FFAF08"/>
<path d="M13.0206 4.72478C14.281 4.72478 15.5415 4.7222 16.8019 4.72478C19.3305 4.73081 21.3244 6.66399 21.3545 9.19737C21.3854 11.7506 21.3811 14.3046 21.3545 16.8578C21.3278 19.3851 19.3985 21.3321 16.8793 21.3639C14.3154 21.3967 11.7515 21.3949 9.18766 21.3639C6.62293 21.3329 4.70561 19.3481 4.70475 16.7846C4.70389 14.2745 4.70217 11.7635 4.70561 9.25334C4.70905 6.71652 6.69601 4.73339 9.23925 4.72564C10.4997 4.7222 11.7601 4.72478 13.0206 4.72478ZM19.8877 13.0396C19.8877 11.8194 19.8911 10.6001 19.8868 9.37992C19.8799 7.51993 18.5825 6.19641 16.7297 6.18694C14.2655 6.17488 11.8005 6.17575 9.33641 6.18694C7.48357 6.19469 6.17326 7.50616 6.16294 9.36873C6.14919 11.8229 6.14919 14.277 6.16294 16.7303C6.17326 18.586 7.49045 19.8923 9.34672 19.9001C11.8109 19.9095 14.2759 19.9095 16.74 19.9001C18.5662 19.8923 19.8765 18.5705 19.8868 16.7424C19.8928 15.5084 19.8877 14.2745 19.8877 13.0396Z" fill="white"/>
<path d="M19.8876 13.0401C19.8876 14.2741 19.8928 15.5081 19.8868 16.7429C19.8773 18.571 18.5661 19.8937 16.74 19.9006C14.2758 19.9109 11.8108 19.91 9.34668 19.9006C7.49041 19.8937 6.17322 18.5865 6.16291 16.7308C6.14915 14.2767 6.14915 11.8225 6.16291 9.36922C6.17322 7.50665 7.48353 6.19518 9.33637 6.18743C11.8005 6.17624 14.2655 6.17538 16.7296 6.18743C18.5825 6.1969 19.8808 7.52043 19.8868 9.38042C19.8911 10.6006 19.8876 11.8208 19.8876 13.0401ZM13.0446 17.5885C15.5363 17.5885 17.6075 15.5227 17.5997 13.0461C17.592 10.5739 15.5113 8.50123 13.036 8.50037C10.5444 8.4995 8.50754 10.5472 8.50668 13.0548C8.50582 15.5675 10.528 17.5885 13.0446 17.5885ZM17.4691 9.55694C18.0056 9.56728 18.4664 9.12122 18.4655 8.5925C18.4647 8.08359 18.0228 7.63926 17.5095 7.63065C16.9583 7.62204 16.5199 8.04915 16.5216 8.59423C16.5233 9.12381 16.9394 9.54747 17.4691 9.55694Z" fill="#FFAF08"/>
<path d="M13.0447 17.5881C10.5281 17.5881 8.50585 15.568 8.50671 13.0544C8.50757 10.5469 10.5444 8.49914 13.0361 8.5C15.5114 8.50086 17.592 10.5735 17.5998 13.0458C17.6075 15.5223 15.5363 17.5881 13.0447 17.5881ZM16.0023 13.0501C16.0023 11.4329 14.6688 10.093 13.0464 10.0801C11.4128 10.0672 10.0509 11.42 10.0509 13.0544C10.0509 14.7 11.3921 16.0476 13.0292 16.0467C14.6662 16.045 16.0023 14.6991 16.0023 13.0501Z" fill="white"/>
<path d="M17.4691 9.55631C16.9395 9.54597 16.5233 9.12317 16.5216 8.59359C16.5199 8.04851 16.9584 7.6214 17.5095 7.63001C18.0228 7.63776 18.4639 8.08295 18.4656 8.59187C18.4664 9.12145 18.0056 9.5675 17.4691 9.55631Z" fill="white"/>
<path d="M16.0023 13.0501C16.0023 14.6991 14.6662 16.0459 13.03 16.0468C11.393 16.0476 10.0517 14.7 10.0517 13.0544C10.0517 11.4201 11.4136 10.0673 13.0472 10.0802C14.6687 10.0922 16.0023 11.4321 16.0023 13.0501Z" fill="#FFAF08"/>
</svg>
