<svg width="41" height="87" viewBox="0 0 41 87" fill="none" xmlns="http://www.w3.org/2000/svg">
<path d="M10.3143 50.7164C7.74236 50.7164 5.17043 50.7164 2.5985 50.7164C0.361244 50.7164 -0.592342 49.2057 0.378054 47.1578C2.8369 41.9643 5.31102 36.7801 7.77751 31.5896C12.5317 21.5783 17.2843 11.567 22.04 1.55571C22.61 0.353984 23.3329 -0.110251 24.4148 0.0217217C25.6679 0.175431 26.4565 1.20327 26.2807 2.56958C25.9889 4.82554 25.645 7.07373 25.321 9.32503C24.2727 16.6161 23.2228 23.9073 22.1745 31.1999C21.9972 32.4281 21.8291 33.6577 21.6442 34.8843C21.47 36.0286 21.6565 36.2724 22.8163 36.2739C28.0106 36.2786 33.2049 36.2739 38.4007 36.2739C40.6426 36.2739 41.5931 37.7799 40.6197 39.831C33.3929 55.0575 26.1615 70.281 18.9302 85.506C18.3372 86.7543 17.3577 87.2449 16.2131 86.8847C15.07 86.5261 14.5428 85.5588 14.7399 84.1863C16.2895 73.4421 17.8391 62.698 19.3886 51.9538C19.5246 51.0114 19.3076 50.7288 18.3372 50.7242C15.6614 50.7071 12.9886 50.7164 10.3143 50.7164Z" fill="#FFAF08"/>
</svg>
