<svg width="27" height="27" viewBox="0 0 27 27" fill="none" xmlns="http://www.w3.org/2000/svg">
<path d="M26.0463 13.051C26.06 20.2231 20.2092 26.0795 13.0223 26.0873C5.83622 26.095 0.00688599 20.2645 7.72448e-06 13.0622C-0.00773033 5.85902 5.79925 0.0207167 12.9896 5.01308e-05C20.1783 -0.0197553 26.0325 5.83146 26.0463 13.051ZM5.25157 18.451C5.43384 18.5664 5.51896 18.631 5.61267 18.6792C7.04077 19.4051 8.5497 19.7952 10.1558 19.8236C15.6412 19.9218 19.9229 15.6498 19.7845 10.199C19.7785 9.95875 19.8292 9.8115 20.0545 9.68319C20.6064 9.36975 20.9933 8.897 21.3244 8.27615C20.9856 8.38206 20.7431 8.46731 20.4947 8.53276C20.2625 8.59389 20.0252 8.6335 19.7897 8.68173C20.2883 8.14956 20.738 7.64151 20.9719 6.9199C20.4156 7.16532 19.9289 7.37026 19.4509 7.59415C19.1474 7.73623 18.9299 7.6949 18.6513 7.47101C17.5009 6.54963 16.2172 6.40927 14.9087 7.06801C13.6379 7.70782 13.0378 8.79367 13.0842 10.2266C13.0894 10.3781 13.0851 10.5297 13.0851 10.7157C10.2237 10.6829 8.11809 9.24661 6.25579 7.25573C5.37022 9.0477 5.82676 10.478 7.29355 11.6844C7.26174 11.7223 7.22993 11.7602 7.19811 11.7972C6.74071 11.6741 6.28417 11.5501 5.80011 11.42C5.94111 12.9692 6.7132 14.0464 8.22126 14.5794C8.21266 14.6191 8.20492 14.6587 8.19633 14.6974C7.77417 14.7172 7.35202 14.737 6.90149 14.7586C7.15169 15.3811 7.487 15.9469 8.03297 16.3008C8.56603 16.6461 9.17648 16.8709 9.76715 17.1559C8.5282 18.2426 6.94964 18.3692 5.25157 18.451Z" fill="#FFAF08"/>
<path d="M5.25159 18.4512C6.94966 18.3694 8.52822 18.2428 9.76975 17.1552C9.17908 16.8702 8.56777 16.6455 8.03557 16.3002C7.4896 15.9462 7.15429 15.3805 6.90409 14.7579C7.35462 14.7364 7.77677 14.7166 8.19892 14.6968C8.20752 14.6572 8.21526 14.6176 8.22386 14.5788C6.7158 14.0458 5.94371 12.9685 5.80271 11.4194C6.28676 11.5503 6.74331 11.6734 7.20072 11.7966C7.23253 11.7587 7.26434 11.7208 7.29615 11.6838C5.82936 10.4773 5.37281 9.04619 6.25839 7.25509C8.12068 9.24597 10.2263 10.6823 13.0877 10.715C13.0877 10.5282 13.092 10.3766 13.0868 10.2259C13.0404 8.79303 13.6396 7.70717 14.9113 7.06737C16.2198 6.40948 17.5035 6.54898 18.6539 7.47037C18.9325 7.69425 19.15 7.73473 19.4535 7.5935C19.9315 7.36962 20.419 7.16467 20.9744 6.91926C20.7406 7.64086 20.2909 8.14892 19.7922 8.68108C20.0278 8.632 20.2651 8.59239 20.4973 8.53211C20.7449 8.46667 20.9874 8.38142 21.327 8.2755C20.9959 8.89636 20.6082 9.36911 20.0571 9.68255C19.8309 9.81085 19.7811 9.9581 19.7871 10.1984C19.9255 15.6492 15.6438 19.9211 10.1584 19.8229C8.5523 19.7945 7.04251 19.4044 5.61527 18.6785C5.51898 18.6312 5.43386 18.5666 5.25159 18.4512Z" fill="white"/>
</svg>
