<svg width="27" height="27" viewBox="0 0 27 27" fill="none" xmlns="http://www.w3.org/2000/svg">
<path d="M26.0472 13.0545C26.0266 20.2663 20.1534 26.1192 12.969 26.0856C5.75715 26.0529 -0.0188689 20.2077 4.63248e-05 12.9624C0.0189616 5.78159 5.88441 -0.0308764 13.0817 0.000123425C20.2385 0.0302622 26.067 5.89871 26.0472 13.0545ZM13.049 7.25236C11.2529 7.35742 9.43617 7.43234 7.6246 7.57786C5.96006 7.71133 5.3049 8.38214 5.14155 10.0355C4.94208 12.053 4.94036 14.0741 5.15186 16.0916C5.31264 17.627 5.9188 18.2496 7.44921 18.4442C9.91421 18.7585 12.3921 18.7576 14.8691 18.6887C16.1554 18.6526 17.4433 18.5639 18.7227 18.4218C20.0769 18.2711 20.689 17.7036 20.8395 16.35C20.9925 14.9722 21.0389 13.5772 21.0467 12.1891C21.0518 11.2901 20.9409 10.3859 20.8145 9.49296C20.6701 8.47083 20.0476 7.85772 19.0262 7.66742C18.8155 7.62781 18.604 7.57959 18.3908 7.56667C16.6179 7.45817 14.8459 7.35742 13.049 7.25236Z" fill="#FFAF08"/>
<path d="M13.049 7.25293C14.8459 7.35798 16.6179 7.45873 18.3891 7.56723C18.6023 7.58015 18.8138 7.62837 19.0245 7.66798C20.0459 7.85743 20.6684 8.4714 20.8128 9.49353C20.9392 10.3856 21.0501 11.2907 21.045 12.1897C21.0372 13.5778 20.9908 14.9719 20.8377 16.3505C20.6873 17.7042 20.0751 18.2717 18.721 18.4223C17.4425 18.5644 16.1536 18.654 14.8674 18.6893C12.3904 18.7582 9.91248 18.759 7.44748 18.4447C5.91706 18.2501 5.31178 17.6275 5.15014 16.0922C4.93863 14.0746 4.94035 12.0536 5.13982 10.036C5.30318 8.38184 5.95832 7.7119 7.62286 7.57843C9.43615 7.43376 11.2529 7.35798 13.049 7.25293ZM11.4489 10.6371C11.4489 12.2758 11.4489 13.8146 11.4489 15.436C12.8469 14.6214 14.189 13.8395 15.5931 13.0206C14.1753 12.2052 12.8435 11.4388 11.4489 10.6371Z" fill="white"/>
<path d="M11.4489 10.6367C12.8435 11.4393 14.1762 12.2048 15.5931 13.0203C14.1882 13.8392 12.8469 14.6211 11.4489 15.4357C11.4489 13.8133 11.4489 12.2754 11.4489 10.6367Z" fill="#FFAF08"/>
</svg>
